# Blender v3.0.0 OBJ File: 'Blocks.blend'
# www.blender.org
mtllib Block.mtl
o Cube_Cube.001
v -2.000000 -0.500000 2.000000
v -2.000000 1.500000 2.000000
v -2.000000 -0.500000 -2.000000
v -2.000000 1.500000 -2.000000
v 2.000000 -0.500000 2.000000
v 2.000000 1.500000 2.000000
v 2.000000 -0.500000 -2.000000
v 2.000000 1.500000 -2.000000
v -2.000000 0.500000 0.000000
v 0.000000 1.500000 -2.000000
v 2.000000 0.500000 0.000000
v 0.000000 1.500000 2.000000
v 0.000000 0.500000 0.000000
v 1.000000 1.500000 -2.000000
v -1.000000 1.500000 2.000000
v -1.000000 1.500000 -2.000000
v 1.000000 1.500000 2.000000
v 1.000000 0.500000 0.000000
v -1.000000 0.500000 0.000000
v -2.000000 0.500000 -0.698792
v -2.000000 0.712986 -1.212986
v -2.000000 0.504092 -0.761648
v -2.000000 0.516213 -0.830272
v -2.000000 0.535895 -0.902029
v -2.000000 0.562382 -0.974160
v -2.000000 0.594657 -1.043895
v -2.000000 0.631480 -1.108552
v -2.000000 0.671434 -1.165647
v 2.000000 0.500000 0.698792
v 2.000000 0.712986 1.212986
v 2.000000 0.504092 0.761648
v 2.000000 0.516213 0.830272
v 2.000000 0.535895 0.902029
v 2.000000 0.562382 0.974160
v 2.000000 0.594657 1.043895
v 2.000000 0.631480 1.108552
v 2.000000 0.671434 1.165647
v -2.000000 0.712986 1.212986
v -2.000000 0.500000 0.698792
v -2.000000 0.671434 1.165647
v -2.000000 0.631480 1.108552
v -2.000000 0.594657 1.043895
v -2.000000 0.562382 0.974160
v -2.000000 0.535895 0.902029
v -2.000000 0.516213 0.830272
v -2.000000 0.504092 0.761648
v 2.000000 0.712986 -1.212986
v 2.000000 0.500000 -0.698792
v 2.000000 0.671434 -1.165647
v 2.000000 0.631480 -1.108552
v 2.000000 0.594657 -1.043895
v 2.000000 0.562382 -0.974160
v 2.000000 0.535895 -0.902029
v 2.000000 0.516213 -0.830272
v 2.000000 0.504092 -0.761648
v 0.000000 0.500000 0.698792
v 0.000000 0.712986 1.212986
v 0.000000 0.504092 0.761648
v 0.000000 0.516213 0.830272
v 0.000000 0.535895 0.902029
v 0.000000 0.562382 0.974160
v 0.000000 0.594657 1.043895
v 0.000000 0.631480 1.108552
v 0.000000 0.671434 1.165647
v 0.000000 0.500000 -0.698792
v 0.000000 0.712986 -1.212986
v 0.000000 0.504092 -0.761648
v 0.000000 0.516213 -0.830272
v 0.000000 0.535895 -0.902029
v 0.000000 0.562382 -0.974160
v 0.000000 0.594657 -1.043895
v 0.000000 0.631480 -1.108552
v 0.000000 0.671434 -1.165647
v -1.000000 0.712986 -1.212986
v -1.000000 0.500000 -0.698792
v -1.000000 0.671434 -1.165647
v -1.000000 0.631480 -1.108552
v -1.000000 0.594657 -1.043895
v -1.000000 0.562382 -0.974160
v -1.000000 0.535895 -0.902029
v -1.000000 0.516213 -0.830272
v -1.000000 0.504092 -0.761648
v 1.000000 0.712986 -1.212986
v 1.000000 0.500000 -0.698792
v 1.000000 0.671434 -1.165647
v 1.000000 0.631480 -1.108552
v 1.000000 0.594657 -1.043895
v 1.000000 0.562382 -0.974160
v 1.000000 0.535895 -0.902029
v 1.000000 0.516213 -0.830272
v 1.000000 0.504092 -0.761648
v 1.000000 0.500000 0.698792
v 1.000000 0.712986 1.212986
v 1.000000 0.504092 0.761648
v 1.000000 0.516213 0.830272
v 1.000000 0.535895 0.902029
v 1.000000 0.562382 0.974160
v 1.000000 0.594657 1.043895
v 1.000000 0.631480 1.108552
v 1.000000 0.671434 1.165647
v -1.000000 0.500000 0.698792
v -1.000000 0.712986 1.212986
v -1.000000 0.504092 0.761648
v -1.000000 0.516213 0.830272
v -1.000000 0.535895 0.902029
v -1.000000 0.562382 0.974160
v -1.000000 0.594657 1.043895
v -1.000000 0.631480 1.108552
v -1.000000 0.671434 1.165647
vt 0.002489 0.651594
vt 0.497511 0.651594
vt 0.497511 0.997511
vt 0.002489 0.997511
vt 0.500000 1.000000
vt 0.890916 0.811745
vt 0.987464 0.388739
vt 0.716942 0.049516
vt 0.283058 0.049516
vt 0.012536 0.388740
vt 0.109084 0.811745
vt 0.002489 0.502489
vt 0.497511 0.502489
vt 0.497511 0.848406
vt 0.002489 0.848406
vt 0.500000 1.000000
vt 0.890916 0.811745
vt 0.987464 0.388739
vt 0.716942 0.049516
vt 0.283058 0.049516
vt 0.012536 0.388740
vt 0.109084 0.811745
vt 0.000000 0.000000
vt 1.000000 0.000000
vt 1.000000 1.000000
vt 0.000000 1.000000
vt 0.002489 0.651594
vt 0.497511 0.651594
vt 0.497511 0.997511
vt 0.002489 0.997511
vt 0.002489 0.502489
vt 0.497511 0.502489
vt 0.497511 0.848406
vt 0.002489 0.848406
vt 0.500000 0.500000
vt 1.000000 0.500000
vt 1.000000 0.893507
vt 0.500000 0.893507
vt 0.500000 0.606493
vt 1.000000 0.606493
vt 1.000000 1.000000
vt 0.500000 1.000000
vt 0.500000 0.500000
vt 1.000000 0.500000
vt 1.000000 0.893507
vt 0.500000 0.893507
vt 0.500000 1.000000
vt 0.890916 0.811745
vt 0.966901 0.478834
vt 0.973714 0.456508
vt 0.986054 0.425062
vt 1.002340 0.385747
vt 1.009709 0.348040
vt 0.985313 0.330575
vt 0.952913 0.319058
vt 0.925792 0.304733
vt 0.905981 0.286563
vt 0.716942 0.049516
vt 0.413747 0.049516
vt 0.387189 0.045355
vt 0.359080 0.033083
vt 0.329875 0.014932
vt 0.301009 0.006748
vt 0.276123 0.036019
vt 0.255539 0.073265
vt 0.238647 0.102519
vt 0.225441 0.121766
vt 0.012536 0.388740
vt 0.109084 0.811745
vt 0.500000 0.500000
vt 1.000000 0.500000
vt 1.000000 0.893507
vt 0.500000 0.893507
vt 0.500000 0.606493
vt 1.000000 0.606493
vt 1.000000 1.000000
vt 0.500000 1.000000
vt 0.002489 0.651594
vt 0.497511 0.651594
vt 0.497511 0.997511
vt 0.002489 0.997511
vt 0.500000 1.000000
vt 0.890916 0.811745
vt 0.966901 0.478834
vt 0.973714 0.456508
vt 0.986054 0.425062
vt 1.002340 0.385747
vt 1.009709 0.348040
vt 0.985313 0.330575
vt 0.952913 0.319058
vt 0.925792 0.304733
vt 0.905981 0.286563
vt 0.716942 0.049516
vt 0.413747 0.049516
vt 0.387189 0.045355
vt 0.359080 0.033083
vt 0.329875 0.014932
vt 0.301009 0.006748
vt 0.276123 0.036019
vt 0.255539 0.073265
vt 0.238647 0.102519
vt 0.225441 0.121766
vt 0.012536 0.388740
vt 0.109084 0.811745
vt 0.002489 0.502489
vt 0.497511 0.502489
vt 0.497511 0.848406
vt 0.002489 0.848406
vt 0.002489 0.651594
vt 0.497511 0.651594
vt 0.497511 0.997511
vt 0.002489 0.997511
vt 0.500000 0.606493
vt 1.000000 0.606493
vt 1.000000 1.000000
vt 0.500000 1.000000
vt 0.002489 0.502489
vt 0.497511 0.502489
vt 0.497511 0.848406
vt 0.002489 0.848406
vt 0.500000 0.606493
vt 1.000000 0.606493
vt 1.000000 1.000000
vt 0.500000 1.000000
vt 0.002489 0.620479
vt 0.497511 0.620479
vt 0.002489 0.586508
vt 0.497511 0.586508
vt 0.002489 0.550987
vt 0.497511 0.550987
vt 0.002489 0.502489
vt 0.497511 0.502489
vt 1.000000 1.000000
vt 0.500000 1.000000
vt 0.500000 0.965362
vt 1.000000 0.965362
vt 0.500000 0.939992
vt 1.000000 0.939992
vt 0.500000 0.915730
vt 1.000000 0.915730
vt 0.002489 0.620479
vt 0.497511 0.620479
vt 0.002489 0.586508
vt 0.497511 0.586508
vt 0.002489 0.550987
vt 0.497511 0.550987
vt 0.002489 0.502489
vt 0.497511 0.502489
vt 1.000000 1.000000
vt 0.500000 1.000000
vt 0.500000 0.965362
vt 1.000000 0.965362
vt 0.500000 0.939992
vt 1.000000 0.939992
vt 0.500000 0.915730
vt 1.000000 0.915730
vt 0.500000 0.893507
vt 1.000000 0.893507
vt 0.002489 0.620479
vt 0.497511 0.620479
vt 0.002489 0.586508
vt 0.497511 0.586508
vt 0.002489 0.550987
vt 0.497511 0.550987
vt 0.002489 0.502489
vt 0.497511 0.502489
vt 1.000000 1.000000
vt 0.500000 1.000000
vt 0.500000 0.965362
vt 1.000000 0.965362
vt 0.500000 0.939992
vt 1.000000 0.939992
vt 0.500000 0.915730
vt 1.000000 0.915730
vt 0.002489 0.620479
vt 0.497511 0.620479
vt 0.002489 0.586508
vt 0.497511 0.586508
vt 0.002489 0.550987
vt 0.497511 0.550987
vt 0.002489 0.502489
vt 0.497511 0.502489
vt 1.000000 1.000000
vt 0.500000 1.000000
vt 0.500000 0.965362
vt 1.000000 0.965362
vt 0.500000 0.939992
vt 1.000000 0.939992
vt 0.500000 0.915730
vt 1.000000 0.915730
vt 0.500000 0.584270
vt 1.000000 0.584270
vt 0.500000 0.560008
vt 1.000000 0.560008
vt 0.500000 0.534638
vt 1.000000 0.534638
vt 0.500000 0.500000
vt 1.000000 0.500000
vt 0.497511 0.997511
vt 0.002489 0.997511
vt 0.002489 0.949013
vt 0.497511 0.949013
vt 0.002489 0.913492
vt 0.497511 0.913492
vt 0.002489 0.879521
vt 0.497511 0.879521
vt 0.500000 0.584270
vt 1.000000 0.584270
vt 0.500000 0.560008
vt 1.000000 0.560008
vt 0.500000 0.534638
vt 1.000000 0.534638
vt 0.500000 0.500000
vt 1.000000 0.500000
vt 0.497511 0.997511
vt 0.002489 0.997511
vt 0.002489 0.949013
vt 0.497511 0.949013
vt 0.002489 0.913492
vt 0.497511 0.913492
vt 0.002489 0.879521
vt 0.497511 0.879521
vt 0.500000 0.584270
vt 1.000000 0.584270
vt 0.500000 0.560008
vt 1.000000 0.560008
vt 0.500000 0.534638
vt 1.000000 0.534638
vt 0.500000 0.500000
vt 1.000000 0.500000
vt 0.497511 0.997511
vt 0.002489 0.997511
vt 0.002489 0.949013
vt 0.497511 0.949013
vt 0.002489 0.913492
vt 0.497511 0.913492
vt 0.002489 0.879521
vt 0.497511 0.879521
vt 0.500000 0.584270
vt 1.000000 0.584270
vt 0.500000 0.560008
vt 1.000000 0.560008
vt 0.500000 0.534638
vt 1.000000 0.534638
vt 0.500000 0.500000
vt 1.000000 0.500000
vt 0.497511 0.997511
vt 0.002489 0.997511
vt 0.002489 0.949013
vt 0.497511 0.949013
vt 0.002489 0.913492
vt 0.497511 0.913492
vt 0.002489 0.879521
vt 0.497511 0.879521
vt 0.500000 0.500000
vt 1.000000 0.500000
vn 0.0000 0.9995 0.0325
vn 0.0000 1.0000 0.0000
vn 0.0000 0.0000 -1.0000
vn 0.0000 0.9995 -0.0325
vn 0.0000 0.0000 1.0000
vn 0.0000 -1.0000 0.0000
vn 0.0000 0.7071 0.7071
vn 0.0000 0.7297 0.6837
vn 0.0000 0.7297 -0.6837
vn 0.0000 0.7071 -0.7071
vn -1.0000 0.0000 0.0000
vn 1.0000 0.0000 0.0000
vn 0.0000 0.9928 0.1196
vn 0.0000 0.9756 0.2195
vn 0.0000 0.9524 0.3049
vn 0.0000 0.9239 0.3827
vn 0.0000 0.8890 0.4579
vn 0.0000 0.8450 0.5347
vn 0.0000 0.7866 0.6174
vn 0.0000 0.7866 -0.6174
vn 0.0000 0.8450 -0.5347
vn 0.0000 0.8890 -0.4579
vn 0.0000 0.9239 -0.3827
vn 0.0000 0.9524 -0.3049
vn 0.0000 0.9756 -0.2195
vn 0.0000 0.9928 -0.1196
usemtl Material.001
s 1
f 75/1/1 20/2/1 9/3/2 19/4/2
f 3/5/3 4/6/3 16/7/3 10/8/3 14/9/3 8/10/3 7/11/3
f 11/12/2 18/13/2 92/14/4 29/15/4
f 5/16/5 6/17/5 17/18/5 12/19/5 15/20/5 2/21/5 1/22/5
f 3/23/6 7/24/6 5/25/6 1/26/6
f 48/27/1 84/28/1 18/29/2 11/30/2
f 13/31/2 19/32/2 101/33/4 56/34/4
f 10/35/7 16/36/7 74/37/8 66/38/8
f 30/39/9 93/40/9 17/41/10 6/42/10
f 14/43/7 10/44/7 66/45/8 83/46/8
f 1/47/11 2/48/11 38/49/11 40/50/11 41/51/11 42/52/11 43/53/11 44/54/11 45/55/11 46/56/11 39/57/11 9/58/11 20/59/11 22/60/11 23/61/11 24/62/11 25/63/11 26/64/11 27/65/11 28/66/11 21/67/11 4/68/11 3/69/11
f 8/70/7 14/71/7 83/72/8 47/73/8
f 57/74/9 102/75/9 15/76/10 12/77/10
f 84/78/1 65/79/1 13/80/2 18/81/2
f 7/82/12 8/83/12 47/84/12 49/85/12 50/86/12 51/87/12 52/88/12 53/89/12 54/90/12 55/91/12 48/92/12 11/93/12 29/94/12 31/95/12 32/96/12 33/97/12 34/98/12 35/99/12 36/100/12 37/101/12 30/102/12 6/103/12 5/104/12
f 19/105/2 9/106/2 39/107/4 101/108/4
f 65/109/1 75/110/1 19/111/2 13/112/2
f 93/113/9 57/114/9 12/115/10 17/116/10
f 18/117/2 13/118/2 56/119/4 92/120/4
f 102/121/9 38/122/9 2/123/10 15/124/10
f 75/110/1 65/109/1 67/125/13 82/126/13
f 82/126/13 67/125/13 68/127/14 81/128/14
f 81/128/14 68/127/14 69/129/15 80/130/15
f 80/130/15 69/129/15 70/131/16 79/132/16
f 79/133/16 70/134/16 71/135/17 78/136/17
f 78/136/17 71/135/17 72/137/18 77/138/18
f 77/138/18 72/137/18 73/139/19 76/140/19
f 76/140/19 73/139/19 66/38/8 74/37/8
f 20/2/1 75/1/1 82/141/13 22/142/13
f 22/142/13 82/141/13 81/143/14 23/144/14
f 23/144/14 81/143/14 80/145/15 24/146/15
f 24/146/15 80/145/15 79/147/16 25/148/16
f 25/149/16 79/150/16 78/151/17 26/152/17
f 26/152/17 78/151/17 77/153/18 27/154/18
f 27/154/18 77/153/18 76/155/19 28/156/19
f 28/156/19 76/155/19 74/157/8 21/158/8
f 84/28/1 48/27/1 55/159/13 91/160/13
f 91/160/13 55/159/13 54/161/14 90/162/14
f 90/162/14 54/161/14 53/163/15 89/164/15
f 89/164/15 53/163/15 52/165/16 88/166/16
f 88/167/16 52/168/16 51/169/17 87/170/17
f 87/170/17 51/169/17 50/171/18 86/172/18
f 86/172/18 50/171/18 49/173/19 85/174/19
f 85/174/19 49/173/19 47/73/8 83/72/8
f 65/79/1 84/78/1 91/175/13 67/176/13
f 67/176/13 91/175/13 90/177/14 68/178/14
f 68/178/14 90/177/14 89/179/15 69/180/15
f 69/180/15 89/179/15 88/181/16 70/182/16
f 70/183/16 88/184/16 87/185/17 71/186/17
f 71/186/17 87/185/17 86/187/18 72/188/18
f 72/188/18 86/187/18 85/189/19 73/190/19
f 73/190/19 85/189/19 83/46/8 66/45/8
f 93/40/9 30/39/9 37/191/20 100/192/20
f 100/192/20 37/191/20 36/193/21 99/194/21
f 99/194/21 36/193/21 35/195/22 98/196/22
f 98/196/22 35/195/22 34/197/23 97/198/23
f 97/199/23 34/200/23 33/201/24 96/202/24
f 96/202/24 33/201/24 32/203/25 95/204/25
f 95/204/25 32/203/25 31/205/26 94/206/26
f 94/206/26 31/205/26 29/15/4 92/14/4
f 57/114/9 93/113/9 100/207/20 64/208/20
f 64/208/20 100/207/20 99/209/21 63/210/21
f 63/210/21 99/209/21 98/211/22 62/212/22
f 62/212/22 98/211/22 97/213/23 61/214/23
f 61/215/23 97/216/23 96/217/24 60/218/24
f 60/218/24 96/217/24 95/219/25 59/220/25
f 59/220/25 95/219/25 94/221/26 58/222/26
f 58/222/26 94/221/26 92/120/4 56/119/4
f 102/75/9 57/74/9 64/223/20 109/224/20
f 109/224/20 64/223/20 63/225/21 108/226/21
f 108/226/21 63/225/21 62/227/22 107/228/22
f 107/228/22 62/227/22 61/229/23 106/230/23
f 106/231/23 61/232/23 60/233/24 105/234/24
f 105/234/24 60/233/24 59/235/25 104/236/25
f 104/236/25 59/235/25 58/237/26 103/238/26
f 103/238/26 58/237/26 56/34/4 101/33/4
f 38/122/9 102/121/9 109/239/20 40/240/20
f 40/240/20 109/239/20 108/241/21 41/242/21
f 41/242/21 108/241/21 107/243/22 42/244/22
f 42/244/22 107/243/22 106/245/23 43/246/23
f 43/247/23 106/248/23 105/249/24 44/250/24
f 44/250/24 105/249/24 104/251/25 45/252/25
f 45/252/25 104/251/25 103/253/26 46/254/26
f 46/254/26 103/253/26 101/108/4 39/107/4
f 16/255/7 4/256/7 21/158/8 74/157/8
