# Blender v3.0.0 OBJ File: 'Blocks.blend'
# www.blender.org
mtllib Block_Turn.mtl
o Cube.001_Cube.002
v -2.004303 -0.505075 2.002376
v -2.004303 1.494925 2.002376
v -2.004303 -0.505075 -1.997624
v -2.004303 1.494925 -1.997624
v 1.995697 -0.505075 2.002376
v 1.995697 1.494925 2.002376
v 1.995697 -0.505075 -1.997624
v 1.995697 1.494925 -1.997624
v -2.004303 1.494925 0.002376
v 1.995697 0.494925 0.002376
v -0.004303 1.494925 2.002376
v -0.004303 0.494925 0.002376
v 0.995697 1.494925 -1.997624
v 0.995697 1.494925 2.002376
v 0.995697 0.494925 0.002376
v -2.004303 1.494925 -0.696417
v 1.995697 0.494925 0.701168
v 1.995697 0.707911 1.215362
v 1.995697 0.499017 0.764023
v 1.995697 0.511137 0.832648
v 1.995697 0.530819 0.904405
v 1.995697 0.557307 0.976536
v 1.995697 0.589582 1.046270
v 1.995697 0.626404 1.110927
v 1.995697 0.666359 1.168022
v -2.004303 1.494925 0.701168
v 1.995697 0.707911 -1.210610
v 1.995697 0.494925 -0.696417
v 1.995697 0.666359 -1.163271
v 1.995697 0.626404 -1.106176
v 1.995697 0.589582 -1.041519
v 1.995697 0.557307 -0.971785
v 1.995697 0.530819 -0.899653
v 1.995697 0.511137 -0.827897
v 1.995697 0.499017 -0.759272
v -0.004303 0.494925 0.701168
v -0.004303 0.707911 1.215362
v -0.004303 0.499017 0.764023
v -0.004303 0.511137 0.832648
v -0.004303 0.530819 0.904405
v -0.004303 0.557307 0.976536
v -0.004303 0.589582 1.046270
v -0.004303 0.626404 1.110927
v -0.004303 0.666359 1.168022
v -0.004303 0.494925 -0.696417
v 0.995697 0.707911 -1.210610
v 0.995697 0.494925 -0.696417
v 0.995697 0.666359 -1.163271
v 0.995697 0.626404 -1.106176
v 0.995697 0.589582 -1.041519
v 0.995697 0.557307 -0.971785
v 0.995697 0.530819 -0.899653
v 0.995697 0.511137 -0.827897
v 0.995697 0.499017 -0.759272
v 0.995697 0.494925 0.701168
v 0.995697 0.707911 1.215362
v 0.995697 0.499017 0.764023
v 0.995697 0.511137 0.832648
v 0.995697 0.530819 0.904405
v 0.995697 0.557307 0.976536
v 0.995697 0.589582 1.046270
v 0.995697 0.626404 1.110927
v 0.995697 0.666359 1.168022
v -0.004303 0.494925 -1.997624
v 0.995697 0.494925 -1.997624
v -0.569648 1.494925 2.002376
v -1.319385 1.494925 1.592388
v -1.438958 1.494925 2.002376
v -0.660499 1.494925 1.994498
v -0.759967 1.494925 1.971167
v -0.864230 1.494925 1.933280
v -0.969280 1.494925 1.882293
v -1.071082 1.494925 1.820165
v -1.165722 1.494925 1.749284
v -1.249563 1.494925 1.672373
v -1.313402 0.804024 0.002376
v -0.569648 0.494925 0.002376
v -1.244748 0.743721 0.002376
v -1.162029 0.685737 0.002376
v -1.068423 0.632297 0.002376
v -0.967528 0.585458 0.002376
v -0.863222 0.547017 0.002376
v -0.759512 0.518453 0.002376
v -0.660384 0.500864 0.002376
v -0.569648 0.494925 -0.696417
v -1.313216 0.803838 -0.696417
v -0.660380 0.500860 -0.696417
v -0.759497 0.518439 -0.696417
v -0.863190 0.546986 -0.696417
v -0.967474 0.585403 -0.696417
v -1.068340 0.632215 -0.696417
v -1.161914 0.685622 -0.696417
v -1.244598 0.743572 -0.696417
v -0.569648 0.494925 0.701168
v -1.313727 0.804349 0.701168
v -0.660390 0.500870 0.701168
v -0.759536 0.518478 0.701168
v -0.863276 0.547072 0.701168
v -0.967623 0.585553 0.701168
v -1.068567 0.632442 0.701168
v -1.162229 0.685938 0.701168
v -1.245010 0.743983 0.701168
v -1.319193 0.955734 1.053447
v -0.569648 0.707911 1.215362
v -1.249409 0.907386 1.085035
v -1.165604 0.860896 1.115409
v -1.070997 0.818051 1.143402
v -0.969225 0.780496 1.167938
v -0.864198 0.749676 1.188074
v -0.759952 0.726775 1.203037
v -0.660495 0.712672 1.212250
v -0.569648 0.499017 0.764023
v -1.314207 0.807653 0.744544
v -0.660399 0.504947 0.763649
v -0.759573 0.522511 0.762540
v -0.863357 0.551032 0.760740
v -0.967764 0.589414 0.758318
v -1.068781 0.636184 0.755366
v -1.162526 0.689543 0.751998
v -1.245396 0.747441 0.748344
v -0.569648 0.511137 0.832648
v -1.314830 0.816630 0.791820
v -0.660411 0.517007 0.831863
v -0.759620 0.534391 0.829540
v -0.863462 0.562622 0.825767
v -0.967947 0.600614 0.820689
v -1.069058 0.646907 0.814502
v -1.162910 0.699723 0.807444
v -1.245898 0.757032 0.799785
v -0.569648 0.530819 0.904405
v -1.315561 0.830905 0.841145
v -0.660425 0.536585 0.903189
v -0.759676 0.553662 0.899589
v -0.863585 0.581393 0.893743
v -0.968160 0.618712 0.885876
v -1.069382 0.664186 0.876290
v -1.163361 0.716067 0.865354
v -1.246485 0.772361 0.853487
v -0.569648 0.557307 0.976536
v -1.316355 0.849892 0.890607
v -0.660441 0.562929 0.974885
v -0.759736 0.579579 0.969995
v -0.863719 0.606616 0.962054
v -0.968393 0.643003 0.951368
v -1.069735 0.687341 0.938347
v -1.163851 0.737925 0.923490
v -1.247125 0.792812 0.907371
v -0.569648 0.589582 1.046270
v -1.317171 0.872835 0.938299
v -0.660456 0.595025 1.044196
v -0.759798 0.611143 1.038051
v -0.863857 0.637319 1.028074
v -0.968632 0.672545 1.014646
v -1.070098 0.715468 0.998284
v -1.164355 0.764439 0.979617
v -1.247782 0.817575 0.959363
v -0.569648 0.626404 1.110927
v -1.317965 0.898827 0.982401
v -0.660471 0.631639 1.108458
v -0.759859 0.647141 1.101144
v -0.863991 0.672316 1.089267
v -0.968865 0.706195 1.073283
v -1.070451 0.747477 1.053807
v -1.164845 0.794575 1.031586
v -1.248421 0.845680 1.007475
v -0.569648 0.666359 1.168022
v -1.318676 0.926838 1.021256
v -0.660485 0.671364 1.165202
v -0.759913 0.686187 1.156850
v -0.864110 0.710258 1.143288
v -0.969073 0.742652 1.125035
v -1.070767 0.782124 1.102795
v -1.165284 0.827157 1.077421
v -1.248993 0.876021 1.049888
v -1.313156 0.803778 -1.997624
v -0.569648 0.494925 -1.997624
v -1.311650 0.187577 -1.997624
v -1.244550 0.743524 -1.997624
v -1.161877 0.685585 -1.997624
v -1.068314 0.632188 -1.997624
v -0.967456 0.585386 -1.997624
v -0.863180 0.546976 -1.997624
v -0.759493 0.518435 -1.997624
v -0.660379 0.500859 -1.997624
vt 0.000000 0.000000
vt 0.000000 0.000000
vt 0.000000 0.000000
vt 0.000000 0.000000
vt 0.000000 0.000000
vt 0.311227 0.190830
vt 0.485361 0.190830
vt 0.000000 0.000000
vt 0.000000 0.000000
vt 0.000000 0.000000
vt 0.000000 0.000000
vt -0.013537 0.000000
vt -0.033889 0.000000
vt -0.052002 0.000000
vt -0.067057 0.000000
vt 0.233389 0.190830
vt 0.258753 0.190830
vt 0.277271 0.190830
vt 0.294989 0.190830
vt 0.002489 0.502489
vt 0.282347 0.502489
vt 0.282347 0.848406
vt 0.002489 0.848406
vt 0.002489 0.502489
vt 0.497511 0.502489
vt 0.497511 0.848406
vt 0.002489 0.848406
vt 0.500000 0.606493
vt 0.782672 0.606493
vt 0.782672 1.000000
vt 0.500000 1.000000
vt 1.000000 0.000000
vt 1.000000 1.000000
vt 0.000000 1.000000
vt 0.002489 0.651594
vt 0.497511 0.651594
vt 0.497511 0.997511
vt 0.002489 0.997511
vt 0.485361 0.190830
vt 0.000000 0.000000
vt 0.000000 0.000000
vt 0.342910 0.190830
vt 0.500000 0.606493
vt 1.000000 0.606493
vt 1.000000 1.000000
vt 0.500000 1.000000
vt 0.500000 0.500000
vt 1.000000 0.500000
vt 1.000000 0.893507
vt 0.500000 0.893507
vt 0.685109 0.415514
vt 0.000000 0.000000
vt 0.193871 0.033914
vt 0.002489 0.651594
vt 0.497511 0.651594
vt 0.497511 0.997511
vt 0.002489 0.997511
vt 0.500000 1.000000
vt 0.890916 0.811745
vt 0.966901 0.478834
vt 0.973714 0.456508
vt 0.986054 0.425062
vt 1.002340 0.385747
vt 1.009709 0.348040
vt 0.985313 0.330575
vt 0.952913 0.319058
vt 0.925792 0.304733
vt 0.905981 0.286563
vt 0.716942 0.049516
vt 0.413747 0.049516
vt 0.387189 0.045355
vt 0.359080 0.033083
vt 0.329875 0.014932
vt 0.301009 0.006748
vt 0.276123 0.036019
vt 0.255539 0.073265
vt 0.238647 0.102519
vt 0.225441 0.121766
vt 0.012536 0.388740
vt 0.109084 0.811745
vt 0.155408 0.651594
vt 0.497511 0.651594
vt 0.497511 0.997511
vt 0.155500 0.997511
vt 0.155500 0.502489
vt 0.497511 0.502489
vt 0.497511 0.848406
vt 0.155661 0.848406
vt 0.500000 0.606493
vt 1.000000 0.606493
vt 1.000000 1.000000
vt 0.500000 1.000000
vt 0.002489 0.502489
vt 0.497511 0.502489
vt 0.497511 0.848406
vt 0.002489 0.848406
vt 0.002489 0.620479
vt 0.497511 0.620479
vt 0.002489 0.586508
vt 0.497511 0.586508
vt 0.002489 0.550987
vt 0.497511 0.550987
vt 0.002489 0.502489
vt 0.497511 0.502489
vt 1.000000 1.000000
vt 0.500000 1.000000
vt 0.500000 0.965362
vt 1.000000 0.965362
vt 0.500000 0.939992
vt 1.000000 0.939992
vt 0.500000 0.915730
vt 1.000000 0.915730
vt 0.500000 0.584270
vt 1.000000 0.584270
vt 0.500000 0.560008
vt 1.000000 0.560008
vt 0.500000 0.534638
vt 1.000000 0.534638
vt 0.500000 0.500000
vt 1.000000 0.500000
vt 0.497511 0.997511
vt 0.002489 0.997511
vt 0.002489 0.949013
vt 0.497511 0.949013
vt 0.002489 0.913492
vt 0.497511 0.913492
vt 0.002489 0.879521
vt 0.497511 0.879521
vt 0.500000 0.584270
vt 1.000000 0.584270
vt 0.500000 0.560008
vt 1.000000 0.560008
vt 0.500000 0.534638
vt 1.000000 0.534638
vt 0.500000 0.500000
vt 1.000000 0.500000
vt 0.497511 0.997511
vt 0.002489 0.997511
vt 0.002489 0.949013
vt 0.497511 0.949013
vt 0.002489 0.913492
vt 0.497511 0.913492
vt 0.002489 0.879521
vt 0.497511 0.879521
vt 0.343330 0.606954
vt 0.343020 0.629827
vt 0.686337 0.384354
vt 0.685627 0.400591
vt 0.687132 0.367367
vt 0.687948 0.343974
vt 0.342656 0.653625
vt 0.500000 1.000000
vt 0.890916 0.811745
vt 0.987464 0.388739
vt 0.716942 0.049516
vt 0.471648 0.049516
vt 0.165474 0.196961
vt 0.012536 0.388740
vt 0.109084 0.811745
vt 0.002489 0.651594
vt 0.282347 0.651594
vt 0.282347 0.997511
vt 0.002489 0.997511
vt 0.500000 0.584270
vt 0.782672 0.584270
vt 0.500000 0.560008
vt 0.782672 0.560008
vt 0.500000 0.534638
vt 0.782672 0.534638
vt 0.500000 0.500000
vt 0.782672 0.500000
vt 0.282347 0.997511
vt 0.002489 0.997511
vt 0.002489 0.949013
vt 0.282347 0.949013
vt 0.002489 0.913492
vt 0.282347 0.913492
vt 0.002489 0.879521
vt 0.282347 0.879521
vt 0.001719 0.585889
vt 0.000000 0.000000
vt 0.485361 0.174992
vt 0.485361 0.190830
vt 0.489193 0.169551
vt 0.447264 0.145834
vt 0.237374 0.041524
vt 0.403520 0.122428
vt 0.359640 0.100234
vt 0.337753 0.092007
vt 0.251120 0.043929
vt 0.231479 0.040493
vt 0.212149 0.037111
vt 0.751017 0.455696
vt 0.751398 0.439245
vt 0.823342 0.500181
vt 0.823522 0.482053
vt 0.899306 0.547261
vt 0.899228 0.527370
vt 1.000000 0.606493
vt 1.000000 0.587449
vt 0.929947 0.608978
vt 0.929904 0.586953
vt 0.877825 0.607615
vt 0.877805 0.585482
vt 0.828096 0.606776
vt 0.828091 0.584576
vt 0.751911 0.421255
vt 0.823727 0.462004
vt 0.899026 0.505033
vt 1.000000 0.562603
vt 0.929844 0.562165
vt 0.877778 0.560982
vt 0.828084 0.560254
vt 0.752507 0.402494
vt 0.824044 0.441260
vt 0.898996 0.482175
vt 1.000000 0.536952
vt 0.929777 0.536767
vt 0.877748 0.535600
vt 0.828077 0.534881
vt 0.753144 0.376852
vt 0.824471 0.413345
vt 0.899186 0.452050
vt 1.000000 0.505930
vt 0.929708 0.503412
vt 0.877717 0.501541
vt 0.828069 0.500389
vt 0.754919 0.374935
vt 0.378960 0.711774
vt 0.831503 0.405749
vt 0.426054 0.768732
vt 0.914756 0.435233
vt 0.482130 0.822310
vt 1.000000 0.500000
vt 0.581899 0.873606
vt 0.497511 0.957158
vt 0.497511 0.997511
vt 0.427919 0.999659
vt 0.427853 0.953699
vt 0.376445 0.998481
vt 0.376415 0.951130
vt 0.327292 0.997755
vt 0.327284 0.949547
vt 0.374979 0.715401
vt 0.375263 0.689208
vt 0.410284 0.783099
vt 0.410474 0.754387
vt 0.447214 0.854119
vt 0.447300 0.822859
vt 0.497511 0.949013
vt 0.497511 0.916389
vt 0.427853 0.950491
vt 0.427792 0.915690
vt 0.376415 0.949680
vt 0.376388 0.914484
vt 0.327284 0.949181
vt 0.327277 0.913742
vt 0.375504 0.664061
vt 0.410632 0.726838
vt 0.447363 0.792871
vt 0.497511 0.884447
vt 0.427740 0.882355
vt 0.376364 0.880801
vt 0.327271 0.879844
vt 0.375556 0.663814
vt 0.004016 0.640788
vt 0.410839 0.725858
vt 0.010520 0.700947
vt 0.447821 0.790702
vt 0.020979 0.764053
vt 0.497511 0.879521
vt 0.048765 0.851315
vt 0.497511 0.851315
vt 0.427740 0.879572
vt 0.427700 0.850080
vt 0.376364 0.879544
vt 0.376346 0.849162
vt 0.327271 0.879527
vt 0.327267 0.848597
vt 0.327262 0.651594
vt 0.327264 0.997511
vt 0.376327 0.651594
vt 0.376334 0.997511
vt 0.427657 0.651594
vt 0.427673 0.997511
vt 0.497511 0.651594
vt 0.497511 0.997511
vt 0.002489 0.997511
vt 0.002489 0.651594
vt 0.052320 0.651594
vt 0.052361 0.997511
vt 0.088699 0.651594
vt 0.088756 0.997511
vt 0.123508 0.651594
vt 0.123582 0.997511
vt 0.327264 0.502489
vt 0.327267 0.848406
vt 0.376334 0.502489
vt 0.376346 0.848406
vt 0.427673 0.502489
vt 0.427700 0.848406
vt 0.497511 0.502489
vt 0.497511 0.848406
vt 0.002489 0.848406
vt 0.002489 0.502489
vt 0.052361 0.502489
vt 0.052433 0.848406
vt 0.088756 0.502489
vt 0.088856 0.848406
vt 0.123582 0.502489
vt 0.123712 0.848406
vt 0.828096 0.606906
vt 0.828098 0.998031
vt 0.877825 0.608128
vt 0.877832 0.992198
vt 0.929947 0.610113
vt 0.929964 0.982726
vt 1.000000 0.612783
vt 1.000000 0.969979
vt 0.988539 0.597589
vt 0.894793 0.541846
vt 0.278161 0.062812
vt 0.821304 0.497736
vt 0.243693 0.049022
vt 0.750502 0.455079
vt 0.215232 0.039264
vt 0.000000 0.000000
vt 0.320048 0.190830
vt 0.000000 0.000000
vt 0.295073 0.190830
vt 0.000000 0.000000
vt 0.268945 0.190830
vn 0.0000 0.0000 -1.0000
vn -1.0000 0.0000 0.0000
vn 0.7071 0.7071 -0.0000
vn 0.4210 0.9071 -0.0000
vn 0.4957 0.8685 -0.0000
vn 0.5739 0.8189 -0.0000
vn 0.6599 0.7514 -0.0000
vn 0.0000 1.0000 0.0000
vn 0.0327 0.9995 -0.0000
vn 0.0327 0.9989 -0.0325
vn 0.0000 0.9995 -0.0325
vn 0.0000 0.7297 -0.6837
vn 0.0308 0.7294 -0.6834
vn 0.0294 0.7204 -0.6929
vn 0.0000 0.7071 -0.7071
vn 0.0000 -1.0000 0.0000
vn 0.0000 0.9995 0.0325
vn 0.0000 0.9998 0.0217
vn 0.0000 0.7071 0.7071
vn 0.0000 0.7297 0.6837
vn 0.6557 0.5508 -0.5164
vn 0.6091 0.7770 -0.1589
vn 0.3616 0.8817 -0.3032
vn 1.0000 -0.0000 0.0000
vn 0.6839 0.7296 -0.0000
vn 0.6833 0.7298 -0.0240
vn 0.0000 0.9928 0.1196
vn 0.0000 0.9756 0.2195
vn 0.0000 0.9524 0.3049
vn 0.0000 0.9239 0.3827
vn 0.0000 0.8890 0.4579
vn 0.0000 0.8450 0.5347
vn 0.0000 0.7866 0.6174
vn 0.0000 0.7866 -0.6174
vn 0.0000 0.8450 -0.5347
vn 0.0000 0.8890 -0.4579
vn 0.0000 0.9239 -0.3827
vn 0.0000 0.9524 -0.3049
vn 0.0000 0.9756 -0.2195
vn 0.0000 0.9928 -0.1196
vn 0.6820 0.7260 -0.0880
vn 0.6793 0.7158 -0.1616
vn 0.6661 0.6300 -0.3994
vn 0.6610 0.5899 -0.4639
vn 0.6698 0.6598 -0.3406
vn 0.6731 0.6830 -0.2836
vn 0.6763 0.7014 -0.2252
vn 0.0000 0.0000 1.0000
vn 0.0312 0.7863 -0.6170
vn 0.0315 0.8447 -0.5344
vn 0.0318 0.8886 -0.4576
vn 0.0320 0.9234 -0.3824
vn 0.0322 0.9519 -0.3047
vn 0.0324 0.9751 -0.2193
vn 0.0326 0.9923 -0.1195
vn 0.0020 -1.0000 0.0000
vn 0.0566 0.9290 -0.3658
vn 0.1056 0.9253 -0.3644
vn 0.1486 0.9210 -0.3601
vn 0.1884 0.9162 -0.3537
vn 0.2276 0.9106 -0.3449
vn 0.2683 0.9039 -0.3331
vn 0.3132 0.8953 -0.3169
vn 0.5896 0.5890 -0.5528
vn 0.5947 0.6314 -0.4976
vn 0.5085 0.6277 -0.5894
vn 0.5135 0.6737 -0.5314
vn 0.4342 0.6568 -0.6165
vn 0.4390 0.7056 -0.5562
vn 0.3622 0.6797 -0.6378
vn 0.3665 0.7310 -0.5756
vn 0.2882 0.6985 -0.6550
vn 0.2918 0.7518 -0.5913
vn 0.2074 0.7138 -0.6690
vn 0.2100 0.7689 -0.6039
vn 0.1131 0.7251 -0.6793
vn 0.1145 0.7815 -0.6133
vn 0.5999 0.6752 -0.4293
vn 0.5185 0.7213 -0.4591
vn 0.4435 0.7562 -0.4810
vn 0.3705 0.7840 -0.4980
vn 0.2951 0.8068 -0.5118
vn 0.2125 0.8255 -0.5229
vn 0.1159 0.8393 -0.5311
vn 0.6037 0.7079 -0.3666
vn 0.5221 0.7571 -0.3926
vn 0.4468 0.7943 -0.4116
vn 0.3734 0.8239 -0.4263
vn 0.2975 0.8483 -0.4381
vn 0.2142 0.8681 -0.4477
vn 0.1168 0.8829 -0.4548
vn 0.6069 0.7336 -0.3058
vn 0.5252 0.7853 -0.3278
vn 0.4496 0.8244 -0.3439
vn 0.3758 0.8555 -0.3562
vn 0.2995 0.8811 -0.3662
vn 0.2156 0.9019 -0.3742
vn 0.1176 0.9174 -0.3801
vn 0.6100 0.7541 -0.2432
vn 0.5282 0.8080 -0.2610
vn 0.4523 0.8488 -0.2739
vn 0.3781 0.8812 -0.2838
vn 0.3014 0.9078 -0.2917
vn 0.2170 0.9295 -0.2981
vn 0.1184 0.9457 -0.3028
vn 0.6131 0.7704 -0.1749
vn 0.5311 0.8262 -0.1880
vn 0.4550 0.8684 -0.1974
vn 0.3805 0.9019 -0.2045
vn 0.3033 0.9294 -0.2101
vn 0.2184 0.9520 -0.2146
vn 0.1191 0.9687 -0.2180
vn 0.6157 0.7821 -0.0957
vn 0.5336 0.8394 -0.1031
vn 0.4573 0.8827 -0.1082
vn 0.3825 0.9171 -0.1119
vn 0.3050 0.9454 -0.1148
vn 0.2197 0.9685 -0.1172
vn 0.1198 0.9857 -0.1189
vn 0.6171 0.7865 -0.0263
vn 0.5349 0.8444 -0.0284
vn 0.4584 0.8882 -0.0298
vn 0.3835 0.9230 -0.0307
vn 0.3057 0.9516 -0.0314
vn 0.2202 0.9749 -0.0319
vn 0.1201 0.9922 -0.0323
vn 0.1201 0.9928 -0.0000
vn 0.1202 0.9927 -0.0000
vn 0.2203 0.9754 -0.0000
vn 0.2204 0.9754 -0.0000
vn 0.3058 0.9521 -0.0000
vn 0.3060 0.9520 -0.0000
vn 0.3711 0.9286 -0.0000
vn 0.3838 0.9234 -0.0001
vn 0.4588 0.8885 -0.0001
vn 0.4589 0.8885 -0.0001
vn 0.5354 0.8446 -0.0000
vn 0.5355 0.8445 -0.0001
vn 0.6179 0.7863 -0.0000
vn 0.3457 0.9384 -0.0000
usemtl Material.001
s off
f 3/1/1 4/2/1 175/3/1 177/4/1
f 3/1/2 16/5/2 4/2/2
f 86/6/3 175/3/3 4/2/3 16/7/3
f 175/3/1 178/8/1 177/4/1
f 178/8/1 179/9/1 177/4/1
f 179/9/1 180/10/1 177/4/1
f 180/10/1 181/11/1 177/4/1
f 181/11/1 182/12/1 177/4/1
f 182/12/1 183/13/1 177/4/1
f 183/13/1 184/14/1 177/4/1
f 184/14/1 176/15/1 177/4/1
f 90/16/4 181/11/4 180/10/4 91/17/4
f 91/17/5 180/10/5 179/9/5 92/18/5
f 92/18/6 179/9/6 178/8/6 93/19/6
f 93/19/7 178/8/7 175/3/7 86/6/7
s 1
f 12/20/8 77/21/9 94/22/10 36/23/11
f 10/24/8 15/25/8 55/26/11 17/27/11
f 37/28/12 104/29/13 66/30/14 11/31/15
f 3/1/16 7/32/16 5/33/16 1/34/16
f 28/35/17 47/36/18 15/37/8 10/38/8
f 45/39/8 64/40/8 176/41/9 85/42/9
f 18/43/12 56/44/12 14/45/15 6/46/15
f 8/47/19 13/48/19 46/49/20 27/50/20
f 103/51/21 26/52/22 67/53/23
f 47/54/18 45/55/8 12/56/8 15/57/8
f 7/58/24 8/59/24 27/60/24 29/61/24 30/62/24 31/63/24 32/64/24 33/65/24 34/66/24 35/67/24 28/68/24 10/69/24 17/70/24 19/71/24 20/72/24 21/73/24 22/74/24 23/75/24 24/76/24 25/77/24 18/78/24 6/79/24 5/80/24
f 86/81/25 16/82/3 9/83/3 76/84/25
f 76/85/25 9/86/3 26/87/22 95/88/26
f 56/89/12 37/90/12 11/91/15 14/92/15
f 15/93/8 12/94/8 36/95/11 55/96/11
f 47/36/18 28/35/17 35/97/27 54/98/27
f 54/98/27 35/97/27 34/99/28 53/100/28
f 53/100/28 34/99/28 33/101/29 52/102/29
f 52/102/29 33/101/29 32/103/30 51/104/30
f 51/105/30 32/106/30 31/107/31 50/108/31
f 50/108/31 31/107/31 30/109/32 49/110/32
f 49/110/32 30/109/32 29/111/33 48/112/33
f 48/112/33 29/111/33 27/50/20 46/49/20
f 56/44/12 18/43/12 25/113/34 63/114/34
f 63/114/34 25/113/34 24/115/35 62/116/35
f 62/116/35 24/115/35 23/117/36 61/118/36
f 61/118/36 23/117/36 22/119/37 60/120/37
f 60/121/37 22/122/37 21/123/38 59/124/38
f 59/124/38 21/123/38 20/125/39 58/126/39
f 58/126/39 20/125/39 19/127/40 57/128/40
f 57/128/40 19/127/40 17/27/11 55/26/11
f 37/90/12 56/89/12 63/129/34 44/130/34
f 44/130/34 63/129/34 62/131/35 43/132/35
f 43/132/35 62/131/35 61/133/36 42/134/36
f 42/134/36 61/133/36 60/135/37 41/136/37
f 41/137/37 60/138/37 59/139/38 40/140/38
f 40/140/38 59/139/38 58/141/39 39/142/39
f 39/142/39 58/141/39 57/143/40 38/144/40
f 38/144/40 57/143/40 55/96/11 36/95/11
f 113/145/41 26/52/22 122/146/42
f 158/147/43 26/52/22 167/148/44
f 149/149/45 26/52/22 158/147/43
f 140/150/46 26/52/22 149/149/45
f 131/151/47 26/52/22 140/150/46
f 122/146/42 26/52/22 131/151/47
f 167/148/44 26/52/22 103/51/21
f 5/152/48 6/153/48 14/154/48 11/155/48 66/156/48 68/157/48 2/158/48 1/159/48
f 45/160/8 85/161/9 77/162/9 12/163/8
f 104/29/13 37/28/12 44/164/34 166/165/49
f 166/165/49 44/164/34 43/166/35 157/167/50
f 157/167/50 43/166/35 42/168/36 148/169/51
f 148/169/51 42/168/36 41/170/37 139/171/52
f 139/172/52 41/173/37 40/174/38 130/175/53
f 130/175/53 40/174/38 39/176/39 121/177/54
f 121/177/54 39/176/39 38/178/40 112/179/55
f 112/179/55 38/178/40 36/23/11 94/22/10
f 1/159/2 2/158/2 26/87/2 9/86/2
f 9/83/2 16/5/2 3/1/2
f 1/159/2 9/86/2 3/1/2
f 113/145/41 95/180/26 26/52/22
f 46/49/2 13/48/2 65/181/2
f 48/112/2 46/49/2 65/181/2
f 49/110/2 48/112/2 65/181/2
f 50/108/2 49/110/2 65/181/2
f 51/105/2 50/108/2 65/181/2
f 52/102/2 51/105/2 65/181/2
f 53/100/2 52/102/2 65/181/2
f 54/98/2 53/100/2 65/181/2
f 47/36/2 54/98/2 65/181/2
f 45/39/56 64/40/56 65/181/56 54/182/56 47/183/56
f 7/32/1 3/1/1 64/40/1 65/181/1
f 177/4/1 176/41/1 64/40/1 3/1/1
f 13/48/1 8/59/1 7/32/1 65/181/1
f 66/184/14 69/185/57 68/186/8
f 69/185/57 70/187/58 68/186/8
f 70/187/58 71/188/59 68/186/8
f 71/188/59 72/189/60 68/186/8
f 72/189/60 73/190/61 68/186/8
f 73/190/61 74/191/62 68/186/8
f 74/191/62 75/192/63 68/186/8
f 75/192/63 67/53/23 68/186/8
f 167/148/44 103/51/21 105/193/64 174/194/65
f 174/194/65 105/193/64 106/195/66 173/196/67
f 173/196/67 106/195/66 107/197/68 172/198/69
f 172/198/69 107/197/68 108/199/70 171/200/71
f 171/200/71 108/199/70 109/201/72 170/202/73
f 170/202/73 109/201/72 110/203/74 169/204/75
f 169/204/75 110/203/74 111/205/76 168/206/77
f 168/206/77 111/205/76 104/29/13 166/165/49
f 158/147/43 167/148/44 174/194/65 165/207/78
f 165/207/78 174/194/65 173/196/67 164/208/79
f 164/208/79 173/196/67 172/198/69 163/209/80
f 163/209/80 172/198/69 171/200/71 162/210/81
f 162/210/81 171/200/71 170/202/73 161/211/82
f 161/211/82 170/202/73 169/204/75 160/212/83
f 160/212/83 169/204/75 168/206/77 159/213/84
f 159/213/84 168/206/77 166/165/49 157/167/50
f 149/149/45 158/147/43 165/207/78 156/214/85
f 156/214/85 165/207/78 164/208/79 155/215/86
f 155/215/86 164/208/79 163/209/80 154/216/87
f 154/216/87 163/209/80 162/210/81 153/217/88
f 153/217/88 162/210/81 161/211/82 152/218/89
f 152/218/89 161/211/82 160/212/83 151/219/90
f 151/219/90 160/212/83 159/213/84 150/220/91
f 150/220/91 159/213/84 157/167/50 148/169/51
f 140/150/46 149/149/45 156/214/85 147/221/92
f 147/221/92 156/214/85 155/215/86 146/222/93
f 146/222/93 155/215/86 154/216/87 145/223/94
f 145/223/94 154/216/87 153/217/88 144/224/95
f 144/224/95 153/217/88 152/218/89 143/225/96
f 143/225/96 152/218/89 151/219/90 142/226/97
f 142/226/97 151/219/90 150/220/91 141/227/98
f 141/227/98 150/220/91 148/169/51 139/171/52
f 131/151/47 140/150/46 147/228/92 138/229/99
f 138/229/99 147/228/92 146/230/93 137/231/100
f 137/231/100 146/230/93 145/232/94 136/233/101
f 136/233/101 145/232/94 144/234/95 135/235/102
f 135/236/102 144/237/95 143/238/96 134/239/103
f 134/239/103 143/238/96 142/240/97 133/241/104
f 133/241/104 142/240/97 141/242/98 132/243/105
f 132/243/105 141/242/98 139/172/52 130/175/53
f 122/146/42 131/151/47 138/244/99 129/245/106
f 129/245/106 138/244/99 137/246/100 128/247/107
f 128/247/107 137/246/100 136/248/101 127/249/108
f 127/249/108 136/248/101 135/250/102 126/251/109
f 126/251/109 135/250/102 134/252/103 125/253/110
f 125/253/110 134/252/103 133/254/104 124/255/111
f 124/255/111 133/254/104 132/256/105 123/257/112
f 123/257/112 132/256/105 130/175/53 121/177/54
f 113/145/41 122/146/42 129/245/106 120/258/113
f 120/258/113 129/245/106 128/247/107 119/259/114
f 119/259/114 128/247/107 127/249/108 118/260/115
f 118/260/115 127/249/108 126/251/109 117/261/116
f 117/261/116 126/251/109 125/253/110 116/262/117
f 116/262/117 125/253/110 124/255/111 115/263/118
f 115/263/118 124/255/111 123/257/112 114/264/119
f 114/264/119 123/257/112 121/177/54 112/179/55
f 95/180/26 113/145/41 120/265/113 102/266/120
f 102/266/120 120/265/113 119/267/114 101/268/121
f 101/268/121 119/267/114 118/269/115 100/270/122
f 100/270/122 118/269/115 117/271/116 99/272/123
f 99/273/123 117/271/116 116/274/117 98/275/124
f 98/275/124 116/274/117 115/276/118 97/277/125
f 97/277/125 115/276/118 114/278/119 96/279/126
f 96/279/126 114/278/119 112/179/55 94/22/10
f 77/162/9 85/161/9 87/280/127 84/281/128
f 84/281/128 87/280/127 88/282/129 83/283/130
f 83/283/130 88/282/129 89/284/131 82/285/132
f 82/285/132 89/284/131 90/286/133 81/287/134
f 81/288/134 90/289/133 91/290/135 80/291/136
f 80/291/136 91/290/135 92/292/137 79/293/138
f 79/293/138 92/292/137 93/294/139 78/295/139
f 78/295/139 93/294/139 86/81/25 76/84/25
f 94/22/10 77/21/9 84/296/128 96/297/126
f 96/297/126 84/296/128 83/298/130 97/299/125
f 97/299/125 83/298/130 82/300/132 98/301/124
f 98/301/124 82/300/132 81/302/134 99/303/123
f 99/304/123 81/305/134 80/306/136 100/307/122
f 100/307/122 80/306/136 79/308/138 101/309/121
f 101/309/121 79/308/138 78/310/139 102/311/120
f 102/311/120 78/310/139 76/85/25 95/88/26
f 66/30/14 104/29/13 111/312/76 69/313/57
f 69/313/57 111/312/76 110/314/74 70/315/58
f 70/315/58 110/314/74 109/316/72 71/317/59
f 71/317/59 109/316/72 108/318/70 72/319/60
f 72/189/60 108/320/70 107/321/68 73/322/61
f 73/322/61 107/321/68 106/323/66 74/324/62
f 74/324/62 106/323/66 105/325/64 75/326/63
f 75/326/63 105/325/64 103/51/21 67/53/23
f 85/42/9 176/41/9 184/327/127 87/328/127
f 87/328/127 184/327/127 183/329/129 88/330/129
f 88/330/129 183/329/129 182/331/131 89/332/131
f 89/332/131 182/331/131 181/11/140 90/16/133
f 2/158/8 68/157/8 67/53/23 26/52/22
