# Blender v3.0.0 OBJ File: 'Selector.blend'
# www.blender.org
mtllib Selector.mtl
o Cube
v -2.000000 -0.100000 1.239239
v -2.000000 -0.100000 -1.239239
v -2.000000 0.100000 -1.239239
v -2.000000 0.100000 1.239239
v -1.802431 -0.100000 1.239239
v -1.802431 -0.100000 -1.239239
v -1.802431 0.100000 -1.239239
v -1.802431 0.100000 1.239239
v 2.000000 0.100000 1.239239
v 2.000000 0.100000 -1.239239
v 2.000000 -0.100000 -1.239239
v 2.000000 -0.100000 1.239239
v 1.802431 0.100000 -1.239239
v 1.802431 0.100000 1.239239
v 1.802431 -0.100000 1.239239
v 1.802431 -0.100000 -1.239239
v -1.239239 0.100000 2.000000
v 1.239239 0.100000 2.000000
v 1.239239 -0.100000 2.000000
v -1.239239 -0.100000 2.000000
v 1.239239 0.100000 1.802431
v -1.239239 0.100000 1.802431
v -1.239239 -0.100000 1.802431
v 1.239239 -0.100000 1.802431
v -1.239239 -0.100000 -2.000000
v 1.239239 -0.100000 -2.000000
v 1.239239 0.100000 -2.000000
v -1.239239 0.100000 -2.000000
v -1.239239 -0.100000 -1.802431
v 1.239239 -0.100000 -1.802431
v 1.239239 0.100000 -1.802431
v -1.239239 0.100000 -1.802431
v 1.670621 0.100000 -1.802431
v 1.802431 0.100000 -1.670621
v 1.895635 0.100000 -1.895635
v 1.704736 0.100000 -1.797940
v 1.736526 0.100000 -1.784772
v 1.763825 0.100000 -1.763825
v 1.784772 0.100000 -1.736526
v 1.797940 0.100000 -1.704736
v 1.802431 -0.100000 -1.670621
v 1.670621 -0.100000 -1.802431
v 1.895635 -0.100000 -1.895635
v 1.797940 -0.100000 -1.704736
v 1.784772 -0.100000 -1.736526
v 1.763825 -0.100000 -1.763825
v 1.736526 -0.100000 -1.784772
v 1.704736 -0.100000 -1.797940
v 1.802431 0.100000 1.670621
v 1.670621 0.100000 1.802431
v 1.895635 0.100000 1.895635
v 1.797940 0.100000 1.704736
v 1.784772 0.100000 1.736526
v 1.763825 0.100000 1.763825
v 1.736526 0.100000 1.784772
v 1.704736 0.100000 1.797940
v 1.670621 -0.100000 1.802431
v 1.802431 -0.100000 1.670621
v 1.895635 -0.100000 1.895635
v 1.704736 -0.100000 1.797940
v 1.736526 -0.100000 1.784772
v 1.763825 -0.100000 1.763825
v 1.784772 -0.100000 1.736526
v 1.797940 -0.100000 1.704736
v -1.802431 0.100000 -1.670621
v -1.670621 0.100000 -1.802431
v -1.895635 0.100000 -1.895635
v -1.797940 0.100000 -1.704736
v -1.784772 0.100000 -1.736526
v -1.763825 0.100000 -1.763825
v -1.736526 0.100000 -1.784772
v -1.704736 0.100000 -1.797940
v -1.670621 -0.100000 -1.802431
v -1.802431 -0.100000 -1.670621
v -1.895635 -0.100000 -1.895635
v -1.704736 -0.100000 -1.797940
v -1.736526 -0.100000 -1.784772
v -1.763825 -0.100000 -1.763825
v -1.784772 -0.100000 -1.736526
v -1.797940 -0.100000 -1.704736
v -1.670621 0.100000 1.802431
v -1.802431 0.100000 1.670621
v -1.895635 0.100000 1.895635
v -1.704736 0.100000 1.797940
v -1.736526 0.100000 1.784772
v -1.763825 0.100000 1.763825
v -1.784772 0.100000 1.736526
v -1.797940 0.100000 1.704736
v -1.802431 -0.100000 1.670621
v -1.670621 -0.100000 1.802431
v -1.895635 -0.100000 1.895635
v -1.797940 -0.100000 1.704736
v -1.784772 -0.100000 1.736526
v -1.763825 -0.100000 1.763825
v -1.736526 -0.100000 1.784772
v -1.704736 -0.100000 1.797940
v -2.000000 -0.100000 -1.868190
v -1.868190 -0.100000 -2.000000
v -1.906796 -0.100000 -1.906796
v -1.995509 -0.100000 -1.902305
v -1.982341 -0.100000 -1.934095
v -1.961394 -0.100000 -1.961394
v -1.934095 -0.100000 -1.982341
v -1.902305 -0.100000 -1.995509
v -1.868190 -0.100000 2.000000
v -2.000000 -0.100000 1.868190
v -1.906796 -0.100000 1.906796
v -1.902305 -0.100000 1.995509
v -1.934095 -0.100000 1.982341
v -1.961394 -0.100000 1.961394
v -1.982341 -0.100000 1.934095
v -1.995509 -0.100000 1.902305
v 1.868190 -0.100000 -2.000000
v 2.000000 -0.100000 -1.868190
v 1.906796 -0.100000 -1.906796
v 1.902305 -0.100000 -1.995509
v 1.934095 -0.100000 -1.982341
v 1.961394 -0.100000 -1.961394
v 1.982341 -0.100000 -1.934095
v 1.995509 -0.100000 -1.902305
v 1.868190 0.100000 2.000000
v 2.000000 0.100000 1.868190
v 1.906796 0.100000 1.906796
v 1.902305 0.100000 1.995509
v 1.934095 0.100000 1.982341
v 1.961394 0.100000 1.961394
v 1.982341 0.100000 1.934095
v 1.995509 0.100000 1.902305
v -2.000000 0.100000 1.868190
v -1.868190 0.100000 2.000000
v -1.906796 0.100000 1.906796
v -1.995509 0.100000 1.902305
v -1.982341 0.100000 1.934095
v -1.961394 0.100000 1.961394
v -1.934095 0.100000 1.982341
v -1.902305 0.100000 1.995509
v 2.000000 0.100000 -1.868190
v 1.868190 0.100000 -2.000000
v 1.906796 0.100000 -1.906796
v 1.995509 0.100000 -1.902305
v 1.982341 0.100000 -1.934095
v 1.961394 0.100000 -1.961394
v 1.934095 0.100000 -1.982341
v 1.902305 0.100000 -1.995509
v 2.000000 -0.100000 1.868190
v 1.868190 -0.100000 2.000000
v 1.906796 -0.100000 1.906796
v 1.995509 -0.100000 1.902305
v 1.982341 -0.100000 1.934095
v 1.961394 -0.100000 1.961394
v 1.934095 -0.100000 1.982341
v 1.902305 -0.100000 1.995509
v -1.868190 0.100000 -2.000000
v -2.000000 0.100000 -1.868190
v -1.906796 0.100000 -1.906796
v -1.902305 0.100000 -1.995509
v -1.934095 0.100000 -1.982341
v -1.961394 0.100000 -1.961394
v -1.982341 0.100000 -1.934095
v -1.995509 0.100000 -1.902305
vt 0.850304 0.654905
vt 0.850304 0.708828
vt 0.149696 0.708828
vt 0.149696 0.654905
vt 0.279905 0.725304
vt 0.333828 0.725304
vt 0.361954 0.736954
vt 0.363350 0.738350
vt 0.358524 0.750000
vt 0.279905 0.750000
vt 0.779905 0.524696
vt 0.833828 0.524696
vt 0.166172 0.524696
vt 0.220095 0.524696
vt 0.375000 0.016476
vt 0.625000 0.016476
vt 0.625000 0.095095
vt 0.375000 0.095095
vt 0.666172 0.524696
vt 0.720095 0.524696
vt 0.279905 0.524696
vt 0.333828 0.524696
vt 0.649696 0.595095
vt 0.649696 0.541172
vt 0.350304 0.541172
vt 0.350304 0.595095
vt 0.375000 0.266476
vt 0.625000 0.266476
vt 0.625000 0.345095
vt 0.375000 0.345095
vt 0.375000 0.654905
vt 0.625000 0.654905
vt 0.625000 0.733524
vt 0.375000 0.733524
vt 0.375000 0.404905
vt 0.625000 0.404905
vt 0.625000 0.483524
vt 0.375000 0.483524
vt 0.375000 0.154905
vt 0.625000 0.154905
vt 0.625000 0.233524
vt 0.375000 0.233524
vt 0.833828 0.725304
vt 0.779905 0.725304
vt 0.220095 0.725304
vt 0.166172 0.725304
vt 0.850304 0.595095
vt 0.850304 0.541172
vt 0.861954 0.513046
vt 0.863350 0.511651
vt 0.875000 0.516476
vt 0.875000 0.595095
vt 0.779905 0.500000
vt 0.858524 0.500000
vt 0.361954 0.513046
vt 0.279905 0.500000
vt 0.358524 0.500000
vt 0.363350 0.511650
vt 0.138046 0.513046
vt 0.136650 0.511650
vt 0.141476 0.500000
vt 0.220095 0.500000
vt 0.720095 0.725304
vt 0.666172 0.725304
vt 0.138046 0.736954
vt 0.136650 0.738350
vt 0.125000 0.733524
vt 0.125000 0.654905
vt 0.220095 0.750000
vt 0.141476 0.750000
vt 0.861954 0.736954
vt 0.875000 0.654905
vt 0.875000 0.733524
vt 0.863349 0.738350
vt 0.638046 0.736954
vt 0.720095 0.750000
vt 0.641476 0.750000
vt 0.636650 0.738350
vt 0.649696 0.654905
vt 0.649696 0.708828
vt 0.375000 0.766476
vt 0.625000 0.766476
vt 0.625000 0.845095
vt 0.375000 0.845095
vt 0.638046 0.513046
vt 0.625000 0.595095
vt 0.625000 0.516476
vt 0.636650 0.511650
vt 0.858524 0.750000
vt 0.779905 0.750000
vt 0.350304 0.708828
vt 0.350304 0.654905
vt 0.375000 0.516476
vt 0.375000 0.595095
vt 0.149696 0.595095
vt 0.149696 0.541172
vt 0.125000 0.595095
vt 0.125000 0.516476
vt 0.375000 0.904905
vt 0.625000 0.904905
vt 0.625000 0.983524
vt 0.375000 0.983524
vt 0.661908 0.524696
vt 0.657934 0.524696
vt 0.654522 0.524696
vt 0.651903 0.524696
vt 0.650258 0.524696
vt 0.649696 0.524696
vt 0.350304 0.536908
vt 0.350304 0.532934
vt 0.350304 0.529522
vt 0.350304 0.526904
vt 0.350304 0.525258
vt 0.350304 0.524696
vt 0.649696 0.713092
vt 0.649696 0.717066
vt 0.649696 0.720478
vt 0.649696 0.723096
vt 0.649696 0.724743
vt 0.649696 0.725304
vt 0.338092 0.725304
vt 0.342066 0.725304
vt 0.345478 0.725304
vt 0.348096 0.725304
vt 0.349742 0.725304
vt 0.350304 0.725304
vt 0.850304 0.536908
vt 0.850304 0.532934
vt 0.850304 0.529522
vt 0.850304 0.526904
vt 0.850304 0.525258
vt 0.850304 0.524696
vt 0.161908 0.524696
vt 0.157934 0.524696
vt 0.154522 0.524696
vt 0.151904 0.524696
vt 0.150258 0.524696
vt 0.149696 0.524696
vt 0.838092 0.725304
vt 0.842066 0.725304
vt 0.845478 0.725304
vt 0.848096 0.725304
vt 0.849742 0.725304
vt 0.850304 0.725304
vt 0.149696 0.713092
vt 0.149696 0.717066
vt 0.149696 0.720478
vt 0.149696 0.723096
vt 0.149696 0.724743
vt 0.149696 0.725304
vt 0.125561 0.512212
vt 0.127207 0.508238
vt 0.129826 0.504826
vt 0.130223 0.505223
vt 0.131387 0.506387
vt 0.133238 0.508238
vt 0.137212 0.749439
vt 0.133238 0.747793
vt 0.129826 0.745174
vt 0.125000 0.741762
vt 0.125000 0.737788
vt 0.362788 0.500561
vt 0.366762 0.502207
vt 0.370174 0.504826
vt 0.369777 0.505223
vt 0.368613 0.506387
vt 0.366762 0.508238
vt 0.637212 0.749439
vt 0.633238 0.747793
vt 0.629826 0.745174
vt 0.630223 0.744777
vt 0.631387 0.743613
vt 0.633238 0.741762
vt 0.874439 0.737788
vt 0.872793 0.741762
vt 0.870174 0.745174
vt 0.869777 0.744777
vt 0.868613 0.743613
vt 0.866762 0.741762
vt 0.625561 0.512212
vt 0.627207 0.508238
vt 0.629826 0.504826
vt 0.633238 0.500000
vt 0.637212 0.500000
vt 0.641476 0.500000
vt 0.374439 0.737788
vt 0.372793 0.741762
vt 0.370174 0.745174
vt 0.366762 0.750000
vt 0.362788 0.750000
vt 0.862788 0.500561
vt 0.866762 0.502207
vt 0.870174 0.504826
vt 0.875000 0.508238
vt 0.875000 0.512212
vt 0.375000 0.512212
vt 0.625000 0.512212
vt 0.375000 0.508238
vt 0.625000 0.508238
vt 0.375000 0.500000
vt 0.625000 0.500000
vt 0.375000 0.491762
vt 0.625000 0.491762
vt 0.375000 0.487788
vt 0.625000 0.487788
vt 0.625000 0.987788
vt 0.375000 0.987788
vt 0.625000 0.991762
vt 0.375000 0.991762
vt 0.625000 1.000000
vt 0.375000 1.000000
vt 0.375000 0.000000
vt 0.625000 0.000000
vt 0.625000 0.008238
vt 0.375000 0.008238
vt 0.625000 0.012212
vt 0.375000 0.012212
vt 0.375000 0.762212
vt 0.625000 0.762212
vt 0.375000 0.758238
vt 0.625000 0.758238
vt 0.375000 0.750000
vt 0.625000 0.750000
vt 0.375000 0.741762
vt 0.625000 0.741762
vt 0.375000 0.737788
vt 0.625000 0.737788
vt 0.375000 0.262212
vt 0.625000 0.262212
vt 0.375000 0.258238
vt 0.625000 0.258238
vt 0.375000 0.250000
vt 0.625000 0.250000
vt 0.375000 0.241762
vt 0.625000 0.241762
vt 0.375000 0.237788
vt 0.625000 0.237788
vt 0.850304 0.713092
vt 0.850304 0.717066
vt 0.850304 0.725304
vt 0.149696 0.725304
vt 0.157934 0.725304
vt 0.161908 0.725304
vt 0.350304 0.713092
vt 0.350304 0.717066
vt 0.350304 0.725304
vt 0.649696 0.725304
vt 0.657934 0.725304
vt 0.661908 0.725304
vt 0.338092 0.524696
vt 0.342066 0.524696
vt 0.350304 0.524696
vt 0.649696 0.524696
vt 0.649696 0.532934
vt 0.649696 0.536908
vt 0.149696 0.536908
vt 0.149696 0.532934
vt 0.149696 0.524696
vt 0.850304 0.524696
vt 0.842066 0.524696
vt 0.838092 0.524696
vt 0.720095 0.500000
vn 1.0000 0.0000 0.0000
vn 0.9979 0.0000 -0.0654
vn 0.0000 -1.0000 0.0000
vn 0.0000 0.0000 1.0000
vn 0.0654 0.0000 0.9979
vn -0.9979 0.0000 0.0654
vn -1.0000 0.0000 0.0000
vn -0.0654 0.0000 0.9979
vn -0.0654 0.0000 -0.9979
vn 0.0000 0.0000 -1.0000
vn 0.9979 0.0000 0.0654
vn 0.0654 0.0000 -0.9979
vn -0.9979 0.0000 -0.0654
vn 0.0000 1.0000 0.0000
vn 0.9659 0.0000 -0.2588
vn 0.8660 0.0000 -0.5000
vn 0.7071 0.0000 -0.7071
vn 0.5000 0.0000 -0.8660
vn 0.2588 0.0000 -0.9659
vn -0.2588 0.0000 0.9659
vn -0.5000 0.0000 0.8660
vn -0.7071 0.0000 0.7071
vn -0.8660 0.0000 0.5000
vn -0.9659 0.0000 0.2588
vn 0.2588 0.0000 0.9659
vn 0.5000 0.0000 0.8660
vn 0.7071 0.0000 0.7071
vn 0.8660 0.0000 0.5000
vn 0.9659 0.0000 0.2588
vn -0.2588 0.0000 -0.9659
vn -0.5000 0.0000 -0.8660
vn -0.7071 0.0000 -0.7071
vn -0.8660 0.0000 -0.5000
vn -0.9659 0.0000 -0.2588
usemtl Material
s 1
f 8/1/1 82/2/2 89/3/2 5/4/1
f 24/5/3 57/6/3 59/7/3 147/8/3 146/9/3 19/10/3
f 32/11/4 66/12/5 73/13/5 29/14/4
f 106/15/6 129/16/6 4/17/7 1/18/7
f 33/19/8 31/20/4 30/21/4 42/22/8
f 13/23/7 34/24/6 41/25/6 16/26/7
f 98/27/9 153/28/9 28/29/10 25/30/10
f 12/31/1 9/32/1 122/33/11 145/34/11
f 26/35/10 27/36/10 138/37/12 113/38/12
f 2/39/7 3/40/7 154/41/13 97/42/13
f 81/43/12 22/44/10 23/45/10 90/46/12
f 7/47/14 65/48/14 67/49/14 155/50/14 154/51/14 3/52/14
f 67/49/14 66/12/14 32/11/14 28/53/14 153/54/14 155/50/14
f 43/55/3 42/22/3 30/21/3 26/56/3 113/57/3 115/58/3
f 29/14/3 73/13/3 75/59/3 99/60/3 98/61/3 25/62/3
f 21/63/10 50/64/9 57/6/9 24/5/10
f 5/4/3 89/3/3 91/65/3 107/66/3 106/67/3 1/68/3
f 91/65/3 90/46/3 23/45/3 20/69/3 105/70/3 107/66/3
f 83/71/14 82/2/14 8/1/14 4/72/14 129/73/14 131/74/14
f 51/75/14 50/64/14 21/63/14 18/76/14 121/77/14 123/78/14
f 14/79/14 49/80/14 51/75/14 123/78/14 122/33/14 9/32/14
f 146/81/5 121/82/5 18/83/4 19/84/4
f 35/85/14 34/24/14 13/23/14 10/86/14 137/87/14 139/88/14
f 22/44/14 81/43/14 83/71/14 131/74/14 130/89/14 17/90/14
f 59/7/3 58/91/3 15/92/3 12/31/3 145/34/3 147/8/3
f 49/80/13 14/79/7 15/92/7 58/91/13
f 114/93/2 137/87/2 10/86/1 11/94/1
f 65/48/11 7/47/1 6/95/1 74/96/11
f 75/59/3 74/96/3 6/95/3 2/97/3 97/98/3 99/60/3
f 16/26/3 41/25/3 43/55/3 115/58/3 114/93/3 11/94/3
f 8/1/10 5/4/10 1/18/10 4/72/10
f 20/99/1 23/45/1 22/44/1 17/100/1
f 12/31/10 15/92/10 14/79/10 9/32/10
f 24/5/7 19/84/7 18/76/7 21/63/7
f 30/21/7 31/20/7 27/36/7 26/56/7
f 16/26/4 11/94/4 10/86/4 13/23/4
f 32/11/1 29/14/1 25/30/1 28/53/1
f 6/95/4 7/47/4 3/40/4 2/97/4
f 20/99/4 17/100/4 130/101/8 105/102/8
f 33/19/14 36/103/14 35/85/14
f 36/103/14 37/104/14 35/85/14
f 37/104/14 38/105/14 35/85/14
f 38/105/14 39/106/14 35/85/14
f 39/106/14 40/107/14 35/85/14
f 40/107/14 34/108/14 35/85/14
f 41/25/3 44/109/3 43/55/3
f 44/109/3 45/110/3 43/55/3
f 45/110/3 46/111/3 43/55/3
f 46/111/3 47/112/3 43/55/3
f 47/112/3 48/113/3 43/55/3
f 48/113/3 42/114/3 43/55/3
f 49/80/14 52/115/14 51/75/14
f 52/115/14 53/116/14 51/75/14
f 53/116/14 54/117/14 51/75/14
f 54/117/14 55/118/14 51/75/14
f 55/118/14 56/119/14 51/75/14
f 56/119/14 50/120/14 51/75/14
f 57/6/3 60/121/3 59/7/3
f 60/121/3 61/122/3 59/7/3
f 61/122/3 62/123/3 59/7/3
f 62/123/3 63/124/3 59/7/3
f 63/124/3 64/125/3 59/7/3
f 64/125/3 58/126/3 59/7/3
f 65/48/14 68/127/14 67/49/14
f 68/127/14 69/128/14 67/49/14
f 69/128/14 70/129/14 67/49/14
f 70/129/14 71/130/14 67/49/14
f 71/130/14 72/131/14 67/49/14
f 72/131/14 66/132/14 67/49/14
f 73/13/3 76/133/3 75/59/3
f 76/133/3 77/134/3 75/59/3
f 77/134/3 78/135/3 75/59/3
f 78/135/3 79/136/3 75/59/3
f 79/136/3 80/137/3 75/59/3
f 80/137/3 74/138/3 75/59/3
f 81/43/14 84/139/14 83/71/14
f 84/139/14 85/140/14 83/71/14
f 85/140/14 86/141/14 83/71/14
f 86/141/14 87/142/14 83/71/14
f 87/142/14 88/143/14 83/71/14
f 88/143/14 82/144/14 83/71/14
f 89/3/3 92/145/3 91/65/3
f 92/145/3 93/146/3 91/65/3
f 93/146/3 94/147/3 91/65/3
f 94/147/3 95/148/3 91/65/3
f 95/148/3 96/149/3 91/65/3
f 96/149/3 90/150/3 91/65/3
f 97/98/3 100/151/3 99/60/3
f 100/151/3 101/152/3 99/60/3
f 101/152/3 102/153/3 99/60/3
f 102/153/3 103/154/3 99/60/3
f 103/154/3 104/155/3 99/60/3
f 104/155/3 98/156/3 99/60/3
f 105/70/3 108/157/3 107/66/3
f 108/157/3 109/158/3 107/66/3
f 109/158/3 110/159/3 107/66/3
f 110/159/3 111/160/3 107/66/3
f 111/160/3 112/161/3 107/66/3
f 112/161/3 106/67/3 107/66/3
f 113/57/3 116/162/3 115/58/3
f 116/162/3 117/163/3 115/58/3
f 117/163/3 118/164/3 115/58/3
f 118/164/3 119/165/3 115/58/3
f 119/165/3 120/166/3 115/58/3
f 120/166/3 114/167/3 115/58/3
f 121/77/14 124/168/14 123/78/14
f 124/168/14 125/169/14 123/78/14
f 125/169/14 126/170/14 123/78/14
f 126/170/14 127/171/14 123/78/14
f 127/171/14 128/172/14 123/78/14
f 128/172/14 122/173/14 123/78/14
f 129/73/14 132/174/14 131/74/14
f 132/174/14 133/175/14 131/74/14
f 133/175/14 134/176/14 131/74/14
f 134/176/14 135/177/14 131/74/14
f 135/177/14 136/178/14 131/74/14
f 136/178/14 130/179/14 131/74/14
f 137/87/14 140/180/14 139/88/14
f 140/180/14 141/181/14 139/88/14
f 141/181/14 142/182/14 139/88/14
f 142/182/14 143/183/14 139/88/14
f 143/183/14 144/184/14 139/88/14
f 144/184/14 138/185/14 139/88/14
f 145/34/3 148/186/3 147/8/3
f 148/186/3 149/187/3 147/8/3
f 149/187/3 150/188/3 147/8/3
f 150/188/3 151/189/3 147/8/3
f 151/189/3 152/190/3 147/8/3
f 152/190/3 146/9/3 147/8/3
f 153/54/14 156/191/14 155/50/14
f 156/191/14 157/192/14 155/50/14
f 157/192/14 158/193/14 155/50/14
f 158/193/14 159/194/14 155/50/14
f 159/194/14 160/195/14 155/50/14
f 160/195/14 154/51/14 155/50/14
f 137/87/2 114/93/2 120/196/15 140/197/15
f 140/197/15 120/196/15 119/198/16 141/199/16
f 141/199/16 119/198/16 118/200/17 142/201/17
f 142/201/17 118/200/17 117/202/18 143/203/18
f 143/203/18 117/202/18 116/204/19 144/205/19
f 144/205/19 116/204/19 113/38/12 138/37/12
f 105/102/8 130/101/8 136/206/20 108/207/20
f 108/207/20 136/206/20 135/208/21 109/209/21
f 109/209/21 135/208/21 134/210/22 110/211/22
f 110/212/22 134/213/22 133/214/23 111/215/23
f 111/215/23 133/214/23 132/216/24 112/217/24
f 112/217/24 132/216/24 129/16/6 106/15/6
f 121/82/5 146/81/5 152/218/25 124/219/25
f 124/219/25 152/218/25 151/220/26 125/221/26
f 125/221/26 151/220/26 150/222/27 126/223/27
f 126/223/27 150/222/27 149/224/28 127/225/28
f 127/225/28 149/224/28 148/226/29 128/227/29
f 128/227/29 148/226/29 145/34/11 122/33/11
f 153/28/9 98/27/9 104/228/30 156/229/30
f 156/229/30 104/228/30 103/230/31 157/231/31
f 157/231/31 103/230/31 102/232/32 158/233/32
f 158/233/32 102/232/32 101/234/33 159/235/33
f 159/235/33 101/234/33 100/236/34 160/237/34
f 160/237/34 100/236/34 97/42/13 154/41/13
f 89/3/2 82/2/2 88/238/15 92/145/15
f 92/145/15 88/238/15 87/239/16 93/146/16
f 93/146/16 87/239/16 86/240/17 94/241/17
f 94/241/17 86/240/17 85/140/18 95/242/18
f 95/242/18 85/140/18 84/139/19 96/243/19
f 96/243/19 84/139/19 81/43/12 90/46/12
f 49/80/13 58/91/13 64/244/34 52/115/34
f 52/115/34 64/244/34 63/245/33 53/116/33
f 53/116/33 63/245/33 62/246/32 54/247/32
f 54/247/32 62/246/32 61/122/31 55/248/31
f 55/248/31 61/122/31 60/121/30 56/249/30
f 56/249/30 60/121/30 57/6/9 50/64/9
f 33/19/8 42/22/8 48/250/20 36/103/20
f 36/103/20 48/250/20 47/251/21 37/104/21
f 37/104/21 47/251/21 46/252/22 38/253/22
f 38/253/22 46/252/22 45/110/23 39/254/23
f 39/254/23 45/110/23 44/109/24 40/255/24
f 40/255/24 44/109/24 41/25/6 34/24/6
f 65/48/11 74/96/11 80/256/29 68/127/29
f 68/127/29 80/256/29 79/257/28 69/128/28
f 69/128/28 79/257/28 78/258/27 70/259/27
f 70/259/27 78/258/27 77/134/26 71/260/26
f 71/260/26 77/134/26 76/133/25 72/261/25
f 72/261/25 76/133/25 73/13/5 66/12/5
f 31/20/14 33/19/14 35/85/14 139/88/14 138/185/14 27/262/14
